<?xml version="1.0" encoding="iso-8859-1"?>
<!-- Generator: Adobe Illustrator 19.0.0, SVG Export Plug-In . SVG Version: 6.00 Build 0)  -->
<svg version="1.1" id="Layer_1" xmlns="http://www.w3.org/2000/svg" xmlns:xlink="http://www.w3.org/1999/xlink" x="0px" y="0px"
	 viewBox="0 0 512 512" style="enable-background:new 0 0 512 512;" xml:space="preserve">
<circle style="fill:#FFAD9E;" cx="256" cy="256" r="256"/>
<path style="fill:#FF6262;" d="M453.894,418.404C490.199,374.215,512,317.654,512,256c0-5.701-0.207-11.352-0.572-16.958
	l-91.05-91.05l-73.552,115.333L88.96,360.879l150.58,150.58C244.984,511.805,250.47,512,256,512
	c61.654,0,118.215-21.801,162.404-58.106L453.894,418.404z"/>
<path style="fill:#59595B;" d="M406.123,142.222H105.877c-11.345,0-20.544,9.197-20.544,20.544v186.47
	c0,11.345,9.197,20.544,20.544,20.544h64.79v22.842h170.667v-22.843h64.79c11.345,0,20.544-9.197,20.544-20.544V162.766
	C426.667,151.419,417.47,142.222,406.123,142.222z"/>
<path style="fill:#272525;" d="M406.123,142.222H255.424V392.62h85.909v-22.842h64.79c11.345,0,20.544-9.197,20.544-20.544V162.766
	C426.667,151.419,417.47,142.222,406.123,142.222z"/>
<path style="fill:#02B2B2;" d="M401.096,354.263H110.904c-6.506,0-11.779-5.273-11.779-11.779V169.517
	c0-6.506,5.273-11.779,11.779-11.779h290.192c6.506,0,11.779,5.273,11.779,11.779v172.966
	C412.875,348.989,407.602,354.263,401.096,354.263z"/>
<path style="fill:#386895;" d="M401.096,157.737h-145.67v196.525h145.67c6.506,0,11.779-5.273,11.779-11.779V169.517
	C412.875,163.011,407.602,157.737,401.096,157.737z"/>
<g>
</g>
<g>
</g>
<g>
</g>
<g>
</g>
<g>
</g>
<g>
</g>
<g>
</g>
<g>
</g>
<g>
</g>
<g>
</g>
<g>
</g>
<g>
</g>
<g>
</g>
<g>
</g>
<g>
</g>
</svg>
